o Button
v -0.75 0.2 -0.75
v -0.75 0.2 0.75
v 0.75 0.2 0.75
v 0.75 0.2 -0.75
v -0.956066017177982 9.18454765366783E-18 0.956066017177982
v 0.956066017177982 9.18454765366783E-18 0.956066017177982
v -0.956066017177982 9.18454765366783E-18 -0.956066017177982
v 0.956066017177982 9.18454765366783E-18 -0.956066017177982
vt 0.215 0.5
vt 0.215 0.785
vt 0.3575 0.6425
vt 0.5 0.5
vn 0 1 0
vn 0 0.717589832033584 0.696465959657766
vn 0 0 0
vn -0.696465959657766 0.717589832033584 0
vn 0 0.717589832033584 -0.696465959657766
vn 0.696465959657766 0.717589832033584 0
g Button
f 1/1/1 2/2/1 3/3/1 4/4/1
f 3//2 2//2 5//2 6//2
f 6//3 5//3 5//3 6//3
f 2//4 1//4 7//4 5//4
f 5//3 7//3 7//3 5//3
f 1//5 4//5 8//5 7//5
f 7//3 8//3 8//3 7//3
f 4//6 3//6 6//6 8//6
f 8//3 6//3 6//3 8//3
#h 
